PathFileType	4	(X/Y/Z)	RBDS015\RBDS015runT25.trc
DataRate	CameraRate	NumFrames	NumMarkers	Units	OrigDataRate	OrigDataStartFrame	OrigNumFrames
150.000000	150.000000	5	33	mm	150.000000	3937	4500
Frame#	Time	L.ASIS			L.Heel.Bottom			L.Heel.Lateral			L.Heel.Top			L.Iliac.Crest			L.MT1			L.MT5			L.PSIS			L.Shank.Bottom.Lateral			L.Shank.Bottom.Medial			L.Shank.Top.Lateral			L.Shank.Top.Medial			L.Thigh.Bottom.Lateral			L.Thigh.Bottom.Medial			L.Thigh.Top.Lateral			L.Thigh.Top.Medial			R.ASIS			R.ASY			R.Heel.Bottom			R.Heel.Lateral			R.Heel.Top			R.Iliac.Crest			R.MT1			R.MT5			R.PSIS			R.Shank.Bottom.Lateral			R.Shank.Bottom.Medial			R.Shank.Top.Lateral			R.Shank.Top.Medial			R.Thigh.Bottom.Lateral			R.Thigh.Bottom.Medial			R.Thigh.Top.Lateral			R.Thigh.Top.Medial			
		X1	Y1	Z1	X2	Y2	Z2	X3	Y3	Z3	X4	Y4	Z4	X5	Y5	Z5	X6	Y6	Z6	X7	Y7	Z7	X8	Y8	Z8	X9	Y9	Z9	X10	Y10	Z10	X11	Y11	Z11	X12	Y12	Z12	X13	Y13	Z13	X14	Y14	Z14	X15	Y15	Z15	X16	Y16	Z16	X17	Y17	Z17	X18	Y18	Z18	X19	Y19	Z19	X20	Y20	Z20	X21	Y21	Z21	X22	Y22	Z22	X23	Y23	Z23	X24	Y24	Z24	X25	Y25	Z25	X26	Y26	Z26	X27	Y27	Z27	X28	Y28	Z28	X29	Y29	Z29	X30	Y30	Z30	X31	Y31	Z31	X32	Y32	Z32	X33	Y33	Z33	

3938	26.24666666666667	2204.874525727865	1002.607946703647	906.206379499046	1828.958219159617	46.67002880040656	977.9248498888514	1852.951009159907	63.68984007131348	935.4888804698096	1841.726857978946	87.43637940276845	979.997874915148	2133.467171696913	1075.020572405717	868.4674684598579	2040.548085355008	44.43084272330209	1007.182729566771	2003.541212770224	39.67504782845602	895.7785584397499	2027.313340436044	1051.465535466377	987.5605786525404	1964.359015778044	186.1554527103436	914.9948121249149	1923.097386375444	209.7164196322632	933.6530189563647	2001.583541087369	256.2903632083735	899.0469204193301	1960.292634044217	284.247838900238	918.4670942671472	2150.437131914685	628.6065609032429	868.8154874543748	2087.856423578621	621.4447333333702	894.9944629253903	2132.801138418641	736.8701599767242	855.1735356512918	2068.444467600901	729.3811284983368	887.1389214968555	2212.358884208736	1000.53386835081	1135.532874771685	1993.946860764781	168.3482383933116	1100.240945914794	1836.680231521154	275.8820074593003	1094.47756864961	1868.594143003334	265.5150890445879	1135.711420465015	1878.556490553482	297.7498265424331	1096.522032702675	2135.393268430213	1090.010743267901	1179.162094312813	1978.604388737191	121.5232836149895	1052.138872530351	1944.183330731433	140.3091626275197	1163.542710074506	2029.258758326798	1052.481174391276	1078.312053548339	2010.306806052824	312.3206239622794	1152.170273895485	1980.586624907001	353.8599876052632	1130.0548798157	2070.322459553656	365.5098365282999	1166.749323014329	2041.065830121998	404.5627758434229	1143.923834185073	2245.921633661565	663.0019798941987	1204.378198334335	2190.488654002524	633.0403414353551	1167.088959410364	2190.927029869781	757.2796653041147	1208.000826723936	2136.279367382969	728.7852170559302	1174.824424190835	
3939	26.25333333333333	2206.07907140804	1007.297617059225	906.4218832262263	1812.901063957899	51.24061647450966	977.4788100705978	1837.224927385839	67.53024745230452	934.9646085998262	1826.343818541529	91.73019770236331	979.3325201200449	2134.886398899705	1079.175686166406	869.1475550844867	2023.563992306256	44.46062202394684	1007.489527358873	1986.876417223956	39.96650061290976	895.8924732236584	2028.351714074112	1055.749253928093	987.0267194391437	1949.13988577022	189.7098385068623	914.8754569709454	1907.925611168597	213.2445880103383	933.6979061318195	1986.434466666838	259.8624642429979	899.1591643443069	1945.133621270768	287.8029430785215	918.6355692677819	2140.403046084503	631.7774248253912	869.8384946138596	2077.774550029438	626.754523579294	896.3726649782741	2126.266638614019	740.5275333203791	855.9933244629132	2061.831613873031	735.2067805387012	888.2311718356622	2212.596401897858	1005.528359942248	1135.699602762045	2014.601722989122	162.6656369476732	1098.577934817921	1851.990172637294	262.0034686445045	1090.486306199328	1883.894592464395	253.2510941279771	1132.18319401437	1892.714208257893	285.9770053286255	1093.071832713648	2134.480529474809	1094.610325859121	1179.067654252835	2002.277081284527	114.9966320016459	1050.370774625206	1965.383618380397	132.1465127706286	1161.270281708582	2029.747007879831	1057.102028388264	1077.83095410854	2023.406141118597	306.8897050792785	1150.054354537796	1992.216093355056	347.0353214533548	1127.44472661939	2080.897772219312	362.7121976052838	1165.1752516674	2050.317539450643	400.3464404485717	1141.815046281937	2249.13153384138	669.0564406017884	1204.759231824872	2194.223901781274	638.6434312526986	1167.047026704803	2193.105346003194	762.6072865114451	1208.627906607178	2138.87093402581	733.647442931731	1175.136227442933	
3940	26.26	2207.422708739611	1012.218188067246	906.8144024494599	1797.227456354985	56.71907816651139	976.9849048858022	1821.927378893867	72.1059286769686	934.3854691042626	1811.502406444224	96.84810709788138	978.5766978973113	2136.473092089907	1083.67140065689	869.8036941381392	2006.751685059332	44.46352435420331	1007.76666333364	1970.374748575585	40.31086324642914	895.976356774852	2029.597107516826	1060.338067037389	986.4449557295104	1934.360525233237	193.8653237618075	914.6830276295922	1893.200949262563	217.3369936867038	933.7137790576207	1971.670539393519	264.0683492669467	899.2124193034624	1930.370331841946	291.9477467584786	918.7905485075115	2130.552990625897	635.5061679557923	870.9019610179898	2067.935966850455	632.6308168941607	897.8013907983312	2119.938485549929	744.6454669263785	856.8616763555536	2055.479201023365	741.5041947467846	889.354766866708	2212.968445565765	1010.617261481997	1135.964246848849	2035.735437389614	156.9870387144486	1097.126585193481	1868.124021552425	247.730717717925	1086.350046403702	1899.869395100833	240.6721756379451	1128.571042004134	1907.542744406255	273.7856601510887	1089.482276383502	2133.601758156155	1099.504511926719	1178.969195108061	2026.49438495207	108.5768364129931	1048.886042314485	1987.135320920845	124.0624782546006	1159.195708737321	2030.412355470351	1061.955003065597	1077.289601857157	2036.739100768149	301.2089184568244	1147.910934423072	2004.104185249062	339.8338432130679	1124.731474419732	2091.496366017448	359.649401277797	1163.550417287709	2059.599646064822	395.7498747114246	1139.599254089623	2251.915167431631	675.0420174203961	1205.032253497112	2197.535868337193	644.346410755928	1166.760835892502	2195.005826028739	767.9729540353404	1209.140528003521	2141.232509338295	738.6958515607878	1175.190311131887	
3941	26.26666666666667	2208.872375710387	1017.273354409928	907.3714059268884	1782.024181591332	63.113151316363	976.4564510818417	1807.135470262967	77.4267355760115	933.7703585080723	1797.292680913692	102.7855312256753	977.7519585414423	2138.311007273252	1088.535025821637	870.4080361334799	1990.171541505818	44.43530522542125	1007.989948829606	1954.077311277342	40.73015088619459	896.0182276765353	2031.03182431081	1065.19054720934	985.8275091658329	1920.128251457207	198.6060403543266	914.4122757364521	1879.040472427427	221.9851309459868	933.7032909445948	1957.41419508354	268.8840304418459	899.1993856271345	1916.135425571154	296.6660332795377	918.9359210083226	2121.042754730618	639.7376798419767	871.9613819537831	2058.482408517799	638.9793473030612	899.1981202396232	2113.919964995145	749.1628648387527	857.742288170277	2049.47677109361	748.1747502770195	890.438169895294	2213.470543594	1015.75802800915	1136.297782917966	2057.308152777943	151.3683171454764	1095.917241383843	1885.136958736901	233.1619147628959	1082.161185412939	1916.561229547241	227.8559405627267	1124.949947269967	1923.093149870125	261.2631319129154	1085.832976516522	2132.857936163886	1104.672540166677	1178.868410397116	2051.222381198334	102.3534675160253	1047.707247631103	2009.422285874794	116.1119693772994	1157.350070034601	2031.250543135507	1066.999582731442	1076.715540582643	2050.329168283299	295.3120050565068	1145.784158534698	2016.292515793254	332.2880009513372	1121.959936235404	2102.145759272883	356.3217646019435	1161.902442190709	2068.951872476367	390.7798357513063	1137.30569389648	2254.271196541637	680.8898142952435	1205.20908704265	2200.406057064689	650.0586579239629	1166.277664771315	2196.623438582791	773.3118143383932	1209.524237035993	2143.341343013163	743.8513071637693	1175.002304002618	
3942	26.27333333333333	2210.399202239255	1022.371767823242	908.0729005832617	1767.374499249357	70.39481930365702	975.9043415111744	1792.92038132156	83.47641865320315	933.1376729403758	1783.79322766828	109.5037948245015	976.8826509468626	2140.468571102849	1093.775491572779	870.9461645645742	1973.878787190236	44.38620355888241	1008.137851211143	1938.02508462125	41.25579255785048	896.0086834798891	2032.635172014902	1070.257670326943	985.1972143932865	1906.531679528391	203.8925152593154	914.0602457515344	1865.542030214747	227.1551693624059	933.6730326921411	1943.767150989672	274.2626092974555	899.1159674826566	1902.540741230881	301.917339059732	919.081161096533	2112.010003128006	644.3974664679773	872.9741049200527	2049.538281263892	645.6900918817654	900.4897814007106	2108.298481816076	754.0035849467534	858.5991309623527	2043.898990557386	755.1077332852279	891.4191384783189	2214.099467473134	1020.912450327192	1136.67583171384	2079.279546922802	145.8663112162092	1094.97712547212	1903.072794323634	218.394325725842	1078.018264683178	1934.008518047698	214.8764707707372	1121.3990782377	1939.408734406086	248.4954724187142	1082.211828339064	2132.340323052818	1110.070807385222	1178.770966558502	2076.430342149956	96.41604065708589	1046.849500462273	2032.230621987204	108.3446462755785	1155.759910083376	2032.257133418871	1072.196350750582	1076.143624777642	2064.196353340387	289.2363703425415	1143.720316041773	2028.81759667153	324.4357231599171	1119.179825423569	2112.868513422152	352.7381416294542	1160.261911668763	2078.411594174839	385.4507429159607	1134.966881066894	2256.190526488776	686.5422616410851	1205.292089999713	2202.810093686674	655.7002798412532	1165.638617006008	2197.947379512308	778.5673695943324	1209.762939298421	2145.167221233933	749.0439344680558	1174.589421254515	
